Coordinates
version=1
nRows=4
nColumns=63
inDegrees=yes

Units are S.I. units (second, meters, Newtons, ...)
If the header above contains a line with 'inDegrees', this indicates whether rotational values are in degrees (yes) or radians (no).

endheader
time	pelvis_tilt	pelvis_list	pelvis_rotation	pelvis_tx	pelvis_ty	pelvis_tz	hip_flexion_r	hip_adduction_r	hip_rotation_r	knee_angle_r	knee_angle_r_beta	ankle_angle_r	subtalar_angle_r	mtp_angle_r	hip_flexion_l	hip_adduction_l	hip_rotation_l	knee_angle_l	knee_angle_l_beta	ankle_angle_l	subtalar_angle_l	mtp_angle_l	L5_S1_Flex_Ext	L5_S1_Lat_Bending	L5_S1_axial_rotation	L4_L5_Flex_Ext	L4_L5_Lat_Bending	L4_L5_axial_rotation	L3_L4_Flex_Ext	L3_L4_Lat_Bending	L3_L4_axial_rotation	L2_L3_Flex_Ext	L2_L3_Lat_Bending	L2_L3_axial_rotation	L1_L2_Flex_Ext	L1_L2_Lat_Bending	L1_L2_axial_rotation	L1_T12_Flex_Ext	L1_T12_Lat_Bending	L1_T12_axial_rotation	Abs_r3	Abs_r2	Abs_r1	Abs_t1	Abs_t2	neck_flexion	neck_bending	neck_rotation	arm_flex_r	arm_add_r	arm_rot_r	elbow_flex_r	pro_sup_r	wrist_flex_r	wrist_dev_r	arm_flex_l	arm_add_l	arm_rot_l	elbow_flex_l	pro_sup_l	wrist_flex_l	wrist_dev_l
      2.28333333	      6.05790457	    -15.83284391	     99.03983359	      0.21596815	      0.77926572	      0.74220266	     15.09107537	      3.93421094	    -31.57989407	      7.12993865	      0.12444090	     18.71465137	     18.41561102	      0.00000000	     12.44466528	     -4.66528446	     10.82316246	      1.12835538	      0.01969352	      8.23284754	    -14.00375936	      0.00000000	     -0.03931862	      0.78522826	     -2.80300275	     -0.07301861	      1.04435359	     -2.97819042	     -0.06459656	      1.90920400	     -2.97819042	     -0.04493725	      1.90920400	     -2.45262741	     -0.03651127	      1.60123747	     -2.27743973	     -0.02246666	      1.21631858	     -2.10225206	     -0.28084896	      8.88265916	    -15.58946039	      0.00000000	      0.00000000	     12.90701253	     -7.61294402	     12.41124836	     65.75336040	    -31.76675615	     28.53424960	     68.30562679	     26.49091571	    -11.14811820	     19.81035844	     40.79709251	    -60.31825170	     10.27899954	     81.32906628	     87.40368727	    -13.93216334	     -7.65607762
      2.30000000	      5.98277266	    -15.98155517	     98.85286454	      0.21628485	      0.77820237	      0.74154551	     15.34672248	      3.79640049	    -31.44642455	      7.47199741	      0.13041096	     19.01119189	     18.40239259	      0.00000000	     12.49608203	     -4.63455298	     10.61999146	      1.07895738	      0.01883136	      8.48337939	    -14.02683915	      0.00000000	     -0.06711035	      0.77223842	     -3.15445356	     -0.12463063	      1.02707710	     -3.35160691	     -0.11025560	      1.87762050	     -3.35160691	     -0.07670042	      1.87762050	     -2.76014686	     -0.06231867	      1.57474859	     -2.56299352	     -0.03834685	      1.19619732	     -2.36584017	     -0.47936253	      8.73571548	    -17.54412436	      0.00000000	      0.00000000	     14.26130612	     -7.29082330	     13.46540234	     64.04254376	    -32.73499517	     27.86495579	     71.05551725	     35.05010086	    -11.89697231	     21.85153296	     26.79705179	    -65.04335488	     -3.44537789	     84.17436176	     86.37529464	    -14.70768960	    -10.52542243
      2.31666667	      5.88646066	    -16.09800305	     98.73327814	      0.21648520	      0.77708436	      0.74054468	     15.61911053	      3.59152688	    -31.29059922	      7.91869867	      0.13820736	     19.45765786	     18.41663554	      0.00000000	     12.63264992	     -4.54628459	     10.24259213	      1.19898565	      0.02092625	      8.99785785	    -13.65232968	      0.00000000	     -0.09547027	      0.74116753	     -3.43990446	     -0.17729784	      0.98575281	     -3.65489849	     -0.15684810	      1.80207473	     -3.65489849	     -0.10911297	      1.80207473	     -3.00991641	     -0.08865369	      1.51138882	     -2.79492238	     -0.05455171	      1.14806850	     -2.57992835	     -0.68193458	      8.38423532	    -19.13171665	      0.00000000	      0.00000000	     15.60698746	     -6.72543890	     13.23573110	     60.86104073	    -34.21148816	     25.97432720	     74.58945262	     38.53142015	    -12.11264934	     22.05001584	     10.53200887	    -67.26870813	    -19.68379352	     86.54272357	     85.66912811	    -14.48181027	    -11.85939457
      2.33333333	      5.84445901	    -16.20271913	     98.58895533	      0.21644424	      0.77596597	      0.73954996	     15.98766133	      3.40666814	    -30.90055726	      8.48412602	      0.14807593	     20.07618374	     18.39641190	      0.00000000	     12.87609117	     -4.48124874	      9.74713930	      1.49722482	      0.02613150	      9.74893915	    -13.07179450	      0.00000000	     -0.12092726	      0.70868233	     -3.59116346	     -0.22457402	      0.94254750	     -3.81561118	     -0.19867140	      1.72309023	     -3.81561118	     -0.13820777	      1.72309023	     -3.14226803	     -0.11229306	      1.44514502	     -2.91782031	     -0.06909784	      1.09774894	     -2.69337260	     -0.86377136	      8.01675630	    -19.97297383	      0.00000000	      0.00000000	     16.81235490	     -6.09203262	     11.66330505	     56.36389259	    -36.27544076	     22.95172424	     78.45888697	     35.82994923	    -11.79917983	     20.43649395	     -2.53876031	    -67.24705064	    -33.01845016	     87.72443562	     85.08968644	    -13.51187850	    -13.10743162
